<svg xmlns="http://www.w3.org/2000/svg" viewBox="0 0 64 64"><defs><linearGradient id="j" x1="0" y1="0" x2="1" y2="1"><stop stop-color="#ff9a3d"/><stop offset="1" stop-color="#e74e22"/></linearGradient></defs><rect x="5" y="5" width="54" height="54" rx="14" fill="url(#j)"/><path fill="#fff" d="M18 18h29v20c0 9-6 14-15 14s-14-5-14-14V18Zm8 8v12c0 4 2 6 6 6s7-2 7-6V26H26Z"/><path fill="none" stroke="#fff" stroke-width="4" stroke-linecap="round" d="M45 25h3c6 0 6 10 0 10h-3"/><path fill="#fff" d="M25 13c2-4 9-4 11 0-2 3-9 3-11 0Z"/></svg>
